<svg xmlns="http://www.w3.org/2000/svg" viewBox="0 0 19 19"><defs><style>.cls-1{fill:#414042;}</style></defs><title>Asset 1</title><g id="Layer_2" data-name="Layer 2"><g id="Layer_1-2" data-name="Layer 1"><path class="cls-1" d="M17,8.82h1.65A.34.34,0,0,0,19,8.48V3.58A26.42,26.42,0,0,1,17,8.82Z"/><path class="cls-1" d="M10.52,0a.34.34,0,0,0-.34.34V2a27,27,0,0,1,5.24-2Z"/><path class="cls-1" d="M9.3,14.49l.34.34a.35.35,0,0,0,.24.1.43.43,0,0,0,.14,0A14.52,14.52,0,0,0,14,12C17.85,8.09,19,.7,19,.39A.35.35,0,0,0,18.9.1a.34.34,0,0,0-.29-.1C18.3.05,10.91,1.15,7,5A14.52,14.52,0,0,0,4.11,9a.33.33,0,0,0,.06.38l.34.34-.79.79A1,1,0,1,1,2.28,9.05a.34.34,0,1,0-.48-.48A1.7,1.7,0,0,0,4.2,11L5,10.18l1,1L3,14.08a1.39,1.39,0,0,1-1.93,0,1.36,1.36,0,0,1,0-1.91.34.34,0,0,0,0-.48.34.34,0,0,0-.48,0A2,2,0,0,0,0,13.12a2,2,0,0,0,.6,1.44,2,2,0,0,0,1.44.6,2,2,0,0,0,1.44-.6l2.95-2.94,1,1L4.44,15.52a2,2,0,0,0,0,2.89A2,2,0,0,0,5.88,19a2,2,0,0,0,1.43-.6.34.34,0,0,0,0-.48.34.34,0,0,0-.48,0A1.36,1.36,0,0,1,4.92,16l2.94-2.95,1,1L8,14.8A1.69,1.69,0,0,0,7.54,16a1.69,1.69,0,0,0,2.89,1.2.34.34,0,0,0-.48-.48,1,1,0,0,1-1.44,0,1,1,0,0,1-.3-.72,1,1,0,0,1,.3-.72ZM7.8,10.18a1,1,0,1,1,1-1A1,1,0,0,1,7.8,10.18Zm2,0a1,1,0,1,1-1,1A1,1,0,0,1,9.84,10.18Z"/><circle class="cls-1" cx="9.84" cy="11.2" r="0.34"/><circle class="cls-1" cx="7.8" cy="9.16" r="0.34"/></g></g></svg>