<?xml version="1.0" encoding="utf-8"?>
<!-- Generator: Adobe Illustrator 23.0.3, SVG Export Plug-In . SVG Version: 6.00 Build 0)  -->
<svg version="1.1" id="Layer_1" xmlns="http://www.w3.org/2000/svg" xmlns:xlink="http://www.w3.org/1999/xlink" x="0px" y="0px"
	 viewBox="0 0 578.5 364.9" style="enable-background:new 0 0 578.5 364.9;" xml:space="preserve">
<style type="text/css">
	.st0{fill:#414042;}
</style>
<title>Asset 1</title>
<g>
	<g id="icons">
		<g id="_4">
			<path class="st0" d="M187.7,102.3c22.5,0,40.8-18.3,40.8-40.8s-18.3-40.8-40.8-40.8S146.9,39,146.9,61.5l0,0
				C146.9,84,165.2,102.3,187.7,102.3z"/>
			<path class="st0" d="M576.9,349.3L347.4,4.5c-1.9-2.8-5-4.5-8.3-4.5l0,0c-3.4,0-6.5,1.7-8.3,4.5L187.9,222.2l91.6,142.6h289.1
				c5.5,0,10-4.5,10-10C578.5,352.9,578,351,576.9,349.3z M373.5,104.7c-2.7,1.3-5.2,2.9-7.5,4.7c-7.3,5.9-24,9.2-35.5,5.8
				c-2.1-0.6-4.2-1.6-6-2.8l-27.6-18.6l3.8-6.9l38.6-58.8L386,98.5L373.5,104.7z"/>
			<path class="st0" d="M132.7,175.1c-1.9-2.8-5-4.5-8.3-4.5l0,0c-3.4,0-6.5,1.7-8.3,4.5L1.6,349.4c-3,4.6-1.7,10.8,2.9,13.8
				c1.6,1.1,3.5,1.6,5.5,1.6h245.7l-89.9-140L132.7,175.1z M100.8,234.7l23.6-36l25,37.8C122,255.2,115.3,245.2,100.8,234.7z"/>
		</g>
	</g>
</g>
</svg>
